<?xml version="1.0" encoding="iso-8859-1"?>
<!-- Generator: Adobe Illustrator 19.0.0, SVG Export Plug-In . SVG Version: 6.00 Build 0)  -->
<svg version="1.1" id="Layer_1" xmlns="http://www.w3.org/2000/svg" xmlns:xlink="http://www.w3.org/1999/xlink" x="0px" y="0px"
	 viewBox="0 0 512 512" style="enable-background:new 0 0 512 512;" xml:space="preserve">
<g>
	<g>
		<path d="M322.783,239.304c-9.206,0-16.696,7.49-16.696,16.696c0,9.206,7.49,16.696,16.696,16.696
			c9.206,0,16.696-7.49,16.696-16.696C339.478,246.794,331.989,239.304,322.783,239.304z"/>
	</g>
</g>
<g>
	<g>
		<path d="M189.217,239.304c-9.206,0-16.696,7.49-16.696,16.696c0,9.206,7.49,16.696,16.696,16.696s16.696-7.49,16.696-16.696
			C205.913,246.794,198.423,239.304,189.217,239.304z"/>
	</g>
</g>
<g>
	<g>
		<path d="M256,100.174c-85.924,0-155.826,69.902-155.826,155.826S170.076,411.826,256,411.826S411.826,341.924,411.826,256
			S341.924,100.174,256,100.174z M189.217,306.087c-27.619,0-50.087-22.468-50.087-50.087s22.468-50.087,50.087-50.087
			c27.619,0,50.087,22.468,50.087,50.087S216.836,306.087,189.217,306.087z M322.783,306.087c-27.619,0-50.087-22.468-50.087-50.087
			s22.468-50.087,50.087-50.087c27.619,0,50.087,22.468,50.087,50.087S350.402,306.087,322.783,306.087z"/>
	</g>
</g>
<g>
	<g>
		<path d="M428.522,0H83.478C37.446,0,0,37.446,0,83.478v345.043C0,474.554,37.446,512,83.478,512h345.043
			C474.554,512,512,474.554,512,428.522V83.478C512,37.446,474.554,0,428.522,0z M256,445.217
			c-104.337,0-189.217-84.881-189.217-189.217S151.663,66.783,256,66.783S445.217,151.663,445.217,256S360.337,445.217,256,445.217z
			"/>
	</g>
</g>
<g>
</g>
<g>
</g>
<g>
</g>
<g>
</g>
<g>
</g>
<g>
</g>
<g>
</g>
<g>
</g>
<g>
</g>
<g>
</g>
<g>
</g>
<g>
</g>
<g>
</g>
<g>
</g>
<g>
</g>
</svg>
